<svg width="19" height="24" viewBox="0 0 19 24" fill="none" xmlns="http://www.w3.org/2000/svg">
<path d="M13.9808 16.5769H16.1442C16.718 16.5769 17.2683 16.349 17.674 15.9433C18.0798 15.5375 18.3077 14.9872 18.3077 14.4135V3.16346C18.3077 2.58968 18.0798 2.03939 17.674 1.63366C17.2683 1.22794 16.718 1 16.1442 1H3.16346C2.58968 1 2.03939 1.22794 1.63366 1.63366C1.22794 2.03939 1 2.58968 1 3.16346V14.4135C1 14.9872 1.22794 15.5375 1.63366 15.9433C2.03939 16.349 2.58968 16.5769 3.16346 16.5769H5.32692" stroke="black" stroke-linecap="round" stroke-linejoin="round"/>
<path d="M9.65386 23.5V7.92306M5.32693 11.3846L9.65386 7.05768L13.9808 11.3846H5.32693Z" stroke="black" stroke-linecap="round" stroke-linejoin="round"/>
</svg>
