<svg width="21" height="20" viewBox="0 0 21 20" fill="none" xmlns="http://www.w3.org/2000/svg">
<path d="M1.67577 6.40663H19.2473M1.1444 6.92237L9.91961 18.3042C9.98338 18.3873 10.0654 18.4547 10.1594 18.501C10.2534 18.5474 10.3568 18.5715 10.4615 18.5715C10.5663 18.5715 10.6697 18.5474 10.7637 18.501C10.8576 18.4547 10.9397 18.3873 11.0035 18.3042L19.7787 6.92237C19.865 6.81003 19.915 6.6741 19.9222 6.53263C19.9294 6.39117 19.8933 6.25087 19.8188 6.13038L16.8422 1.32566C16.7809 1.22623 16.6952 1.14412 16.5933 1.08712C16.4914 1.03012 16.3765 1.00013 16.2597 1H4.66335C4.54655 1.00013 4.43173 1.03012 4.32978 1.08712C4.22783 1.14412 4.14215 1.22623 4.08087 1.32566L1.10427 6.13038C1.02978 6.25087 0.993727 6.39117 1.00089 6.53263C1.00806 6.6741 1.05811 6.81003 1.1444 6.92237V6.92237Z" stroke="black" stroke-linecap="round" stroke-linejoin="round"/>
<path d="M10.4616 17.8957L14.5165 6.40663M16.544 1.67583L14.5165 6.40663L10.4616 1L16.544 1.67583ZM4.37912 1.67583L6.40661 6.40663L10.4616 1L4.37912 1.67583ZM10.4616 17.8957L6.40661 6.40663L10.4616 17.8957Z" stroke="black" stroke-linecap="round" stroke-linejoin="round"/>
</svg>
