<svg width="22" height="22" viewBox="0 0 22 22" fill="none" xmlns="http://www.w3.org/2000/svg">
<path d="M16.7759 3.23474C16.6955 3.23494 16.6166 3.21357 16.5473 3.17286C14.6403 2.15193 12.9916 1.7188 11.015 1.7188C9.04836 1.7188 7.18094 2.20349 5.48238 3.17286C5.24219 3.30865 4.94613 3.21411 4.80692 2.9649C4.74477 2.84461 4.73076 2.70518 4.76771 2.57493C4.80466 2.44468 4.88981 2.33338 5.00586 2.26365C6.83778 1.22465 8.909 0.681407 11.015 0.687552C13.1304 0.687552 14.978 1.17224 17.0045 2.25505C17.1227 2.32006 17.2107 2.42881 17.2497 2.55798C17.2886 2.68716 17.2754 2.82645 17.2129 2.94599C17.1752 3.03086 17.1141 3.10316 17.0366 3.15434C16.9592 3.20552 16.8687 3.23342 16.7759 3.23474ZM2.56223 8.6488C2.45903 8.64807 2.35854 8.61567 2.27434 8.55599C2.16479 8.47458 2.09112 8.35383 2.06884 8.21917C2.04656 8.08452 2.0774 7.94647 2.15488 7.83411C3.13844 6.39036 4.38926 5.25599 5.87984 4.46193C8.99852 2.79302 12.9916 2.78099 16.1202 4.45161C17.6103 5.24568 18.8616 6.36974 19.8451 7.80318C19.9223 7.91564 19.9529 8.0536 19.9307 8.18815C19.9084 8.32271 19.8349 8.44344 19.7257 8.52505C19.6726 8.56468 19.6121 8.593 19.5477 8.60828C19.4832 8.62355 19.4164 8.62544 19.3512 8.61384C19.2861 8.60224 19.224 8.5774 19.1688 8.54084C19.1136 8.50428 19.0665 8.45679 19.0304 8.4013C18.1367 7.10193 17.0045 6.08099 15.6634 5.36943C12.8129 3.85349 9.16738 3.85349 6.32672 5.37974C4.97578 6.10161 3.84356 7.13286 2.94981 8.43052C2.91127 8.4988 2.85478 8.55524 2.78646 8.59372C2.71814 8.63219 2.6406 8.65124 2.56223 8.6488ZM8.76992 21.0977C8.70428 21.0983 8.63927 21.0849 8.57929 21.0582C8.51932 21.0315 8.46578 20.9922 8.42231 20.943C7.5582 20.0441 7.08984 19.4649 6.42598 18.2188C5.73848 16.9504 5.38313 15.4035 5.38313 13.7432C5.38313 10.6804 7.90582 8.18474 11.0052 8.18474C14.1045 8.18474 16.6289 10.6804 16.6289 13.7432C16.6309 13.8096 16.6195 13.8758 16.5954 13.9377C16.5713 13.9996 16.5351 14.0561 16.4888 14.1038C16.4425 14.1515 16.3871 14.1894 16.3259 14.2153C16.2646 14.2412 16.1989 14.2545 16.1324 14.2545C16.0659 14.2545 16.0002 14.2412 15.9389 14.2153C15.8777 14.1894 15.8223 14.1515 15.776 14.1038C15.7297 14.0561 15.6935 13.9996 15.6694 13.9377C15.6453 13.8758 15.6339 13.8096 15.6359 13.7432C15.6359 11.2476 13.5596 9.21599 11.0073 9.21599C8.45496 9.21599 6.37656 11.2476 6.37656 13.7432C6.37656 15.2282 6.6941 16.5997 7.29996 17.7135C7.9359 18.8994 8.37418 19.4047 9.13774 20.2091C9.22829 20.3092 9.27843 20.4394 9.27843 20.5743C9.27843 20.7093 9.22829 20.8395 9.13774 20.9396C9.04025 21.0379 8.90838 21.0946 8.76992 21.0977ZM15.892 19.1899C14.7099 19.1899 13.6671 18.8805 12.8129 18.2721C12.0851 17.762 11.4905 17.0845 11.0793 16.2966C10.668 15.5088 10.452 14.6336 10.4496 13.7449C10.4468 13.6779 10.4576 13.6111 10.4813 13.5484C10.505 13.4857 10.5411 13.4284 10.5875 13.3801C10.6339 13.3317 10.6896 13.2932 10.7513 13.2669C10.8129 13.2406 10.8793 13.2271 10.9463 13.2271C11.0133 13.2271 11.0796 13.2406 11.1413 13.2669C11.203 13.2932 11.2587 13.3317 11.3051 13.3801C11.3515 13.4284 11.3876 13.4857 11.4113 13.5484C11.435 13.6111 11.4458 13.6779 11.443 13.7449C11.4447 14.4668 11.6207 15.1776 11.9562 15.8168C12.2917 16.456 12.7766 17.0047 13.3697 17.4161C14.0748 17.9111 14.8994 18.1466 15.8929 18.1466C16.2388 18.1405 16.5837 18.106 16.9241 18.0435C17.1922 17.9919 17.4505 18.1776 17.4999 18.4663C17.5251 18.5996 17.4964 18.7374 17.4201 18.8495C17.3438 18.9616 17.2262 19.0389 17.093 19.0644C16.6973 19.1426 16.2953 19.184 15.892 19.1882V19.1899ZM13.8952 21.3126C13.8516 21.3107 13.8083 21.3038 13.7663 21.2919C12.1868 20.8382 11.1538 20.2297 10.071 19.1263C8.68012 17.6929 7.9157 15.7851 7.9157 13.7432C7.9157 12.0726 9.28641 10.7113 10.9746 10.7113C12.6629 10.7113 14.034 12.0726 14.034 13.7432C14.034 14.8466 14.9579 15.7438 16.1 15.7438C17.2421 15.7438 18.1659 14.8466 18.1659 13.7432C18.1659 9.85536 14.9377 6.69974 10.9648 6.69974C8.14387 6.69974 5.56145 8.32911 4.39957 10.8557C4.01285 11.691 3.81348 12.6707 3.81348 13.7432C3.81348 14.5476 3.88266 15.816 4.47863 17.466C4.57832 17.7341 4.44899 18.0332 4.19074 18.126C4.12937 18.1494 4.06391 18.1601 3.99829 18.1575C3.93266 18.155 3.86824 18.1391 3.80888 18.1111C3.74952 18.083 3.69645 18.0432 3.65287 17.994C3.60928 17.9449 3.57607 17.8875 3.55524 17.8252C3.07599 16.5176 2.83048 15.1359 2.82992 13.7432C2.82992 12.5057 3.05852 11.3799 3.50539 10.4019C4.82668 7.52302 7.75672 5.65818 10.9648 5.65818C15.4842 5.65818 19.1593 9.27786 19.1593 13.7329C19.1593 15.4035 17.7886 16.7647 16.1 16.7647C14.4113 16.7647 13.0406 15.4035 13.0406 13.7329C13.041 12.6294 12.1172 11.7305 10.9751 11.7305C9.83297 11.7305 8.90914 12.6277 8.90914 13.7311C8.90914 15.4929 9.56484 17.1446 10.7667 18.3821C11.712 19.3515 12.6143 19.886 14.0147 20.2899C14.2828 20.3621 14.4319 20.6508 14.3623 20.919C14.3406 21.0278 14.2826 21.126 14.1977 21.1976C14.1128 21.2691 14.0062 21.3096 13.8952 21.3126Z" fill="black"/>
</svg>
