<svg width="22" height="22" viewBox="0 0 22 22" fill="none" xmlns="http://www.w3.org/2000/svg">
<path d="M20.8946 1.27076C20.8865 1.23131 20.8672 1.195 20.8391 1.16613C20.811 1.13726 20.7752 1.11701 20.736 1.10778C18.1215 0.468335 12.0819 2.74676 8.80633 6.01993C8.22255 6.59892 7.69024 7.22759 7.21542 7.89883C6.20577 7.80748 5.19613 7.88441 4.33649 8.25942C1.90902 9.32676 1.20275 12.1143 1.00563 13.311C0.994948 13.3766 0.99951 13.4437 1.01896 13.5072C1.03841 13.5708 1.07223 13.629 1.11779 13.6773C1.16335 13.7257 1.21943 13.7629 1.28169 13.7861C1.34395 13.8092 1.41071 13.8178 1.4768 13.811L5.3745 13.3831C5.3772 13.6771 5.39485 13.9708 5.42739 14.263C5.44773 14.4649 5.53784 14.6535 5.6822 14.7961L7.19138 16.3053C7.33419 16.4498 7.52292 16.5399 7.72505 16.5601C8.01548 16.5925 8.30737 16.6102 8.59959 16.613L8.17217 20.5074C8.1655 20.5734 8.17409 20.64 8.19729 20.7022C8.22048 20.7643 8.25766 20.8203 8.30594 20.8658C8.35423 20.9113 8.41233 20.9451 8.47575 20.9645C8.53917 20.984 8.60622 20.9886 8.67171 20.978C9.86886 20.7857 12.6622 20.0795 13.7233 17.6525C14.0983 16.7919 14.1752 15.7875 14.0887 14.7827C14.7619 14.3083 15.3924 13.776 15.9729 13.1918C19.2605 9.92245 21.5245 4.01555 20.8946 1.27076ZM13.0507 8.95655C12.7635 8.66946 12.5679 8.30366 12.4887 7.90542C12.4094 7.50717 12.4501 7.09437 12.6054 6.71922C12.7608 6.34407 13.0239 6.02341 13.3616 5.79781C13.6992 5.57221 14.0961 5.4518 14.5022 5.4518C14.9082 5.4518 15.3051 5.57221 15.6428 5.79781C15.9804 6.02341 16.2435 6.34407 16.3989 6.71922C16.5542 7.09437 16.5949 7.50717 16.5156 7.90542C16.4364 8.30366 16.2408 8.66946 15.9536 8.95655C15.7632 9.14742 15.5369 9.29885 15.2879 9.40217C15.0388 9.50549 14.7718 9.55868 14.5022 9.55868C14.2325 9.55868 13.9655 9.50549 13.7165 9.40217C13.4674 9.29885 13.2411 9.14742 13.0507 8.95655V8.95655Z" stroke="black" stroke-linecap="round" stroke-linejoin="round"/>
<path d="M3.96292 15.6072C3.48363 15.6661 3.03774 15.8833 2.69606 16.2246C1.84892 17.0746 1.76863 20.2228 1.76863 20.2228C1.76863 20.2228 4.91871 20.1425 5.76633 19.2944C6.10893 18.9532 6.32657 18.5066 6.38414 18.0265" stroke="black" stroke-linecap="round" stroke-linejoin="round"/>
</svg>
