<svg width="18" height="18" viewBox="0 0 18 18" fill="none" xmlns="http://www.w3.org/2000/svg">
<path d="M15.7308 11.4846C15.6923 11.3461 15.7769 11.1538 15.8577 11.0154C15.8824 10.9742 15.9094 10.9344 15.9385 10.8961C16.6294 9.86955 16.9989 8.66049 17 7.42307C17.0116 3.87692 14.0193 1 10.3193 1C7.09233 1 4.40003 3.19615 3.76926 6.11153C3.6749 6.54364 3.62719 6.98463 3.62695 7.42692C3.62695 10.9769 6.50387 13.9308 10.2039 13.9308C10.7923 13.9308 11.5846 13.7538 12.0193 13.6346C12.4539 13.5154 12.8846 13.3577 12.9962 13.3154C13.1105 13.2723 13.2317 13.2501 13.3539 13.25C13.4872 13.2495 13.6193 13.2756 13.7423 13.3269L15.9231 14.1C15.9709 14.1202 16.0215 14.1332 16.0731 14.1385C16.1547 14.1385 16.233 14.106 16.2907 14.0483C16.3484 13.9906 16.3808 13.9124 16.3808 13.8308C16.3781 13.7956 16.3717 13.7607 16.3616 13.7269L15.7308 11.4846Z" stroke="black" stroke-miterlimit="10" stroke-linecap="round"/>
<path d="M1.71002 8.0769C1.20557 8.98315 0.961548 10.0112 1.00492 11.0475C1.04829 12.0838 1.37738 13.0879 1.95579 13.9488C2.04464 14.0831 2.09464 14.1869 2.07925 14.2565C2.06387 14.3261 1.62041 16.6361 1.62041 16.6361C1.60974 16.6902 1.61379 16.7461 1.63212 16.7981C1.65046 16.85 1.68241 16.8961 1.72464 16.9315C1.78099 16.9764 1.85105 17.0006 1.9231 17C1.9616 17.0001 1.9997 16.9922 2.03502 16.9769L4.19694 16.1307C4.34574 16.0721 4.51173 16.0749 4.65848 16.1384C5.38694 16.4223 6.19233 16.6 6.9981 16.6C8.07935 16.6011 9.14163 16.3159 10.0769 15.7734" stroke="black" stroke-miterlimit="10" stroke-linecap="round"/>
</svg>
