<svg width="24" height="24" viewBox="0 0 24 24" fill="none" xmlns="http://www.w3.org/2000/svg">
<path d="M1.38937 15.514L1.15807 15.1148C1.08063 14.9807 1.03036 14.8328 1.01012 14.6793C0.989878 14.5258 1.00007 14.3699 1.04011 14.2203C1.08015 14.0708 1.14925 13.9306 1.24347 13.8078C1.33769 13.685 1.45518 13.5819 1.58924 13.5045L5.85524 11.0457C5.94468 10.9939 6.04347 10.9602 6.14595 10.9466C6.24843 10.933 6.35259 10.9398 6.45245 10.9665C6.55231 10.9932 6.64592 11.0394 6.7279 11.1024C6.80988 11.1653 6.87863 11.2439 6.93021 11.3335L7.55437 12.4138C7.65845 12.5943 7.6866 12.8087 7.63264 13.0099C7.57868 13.2111 7.44701 13.3827 7.2666 13.4868L3.00158 15.9457C2.73046 16.1019 2.40846 16.1441 2.10622 16.0632C1.80398 15.9823 1.54618 15.7848 1.38937 15.514V15.514Z" stroke="black" stroke-linecap="round" stroke-linejoin="round"/>
<path d="M12.776 12.0009L17.5272 21.4286M7.81023 12.8701L6.65325 10.8704C6.49709 10.5997 6.4549 10.2779 6.53594 9.97606C6.61698 9.67417 6.81463 9.41684 7.0854 9.26068L13.1974 5.73719C13.2868 5.68535 13.3856 5.65167 13.4881 5.63807C13.5906 5.62448 13.6947 5.63124 13.7946 5.65798C13.8944 5.68471 13.988 5.73089 14.07 5.79386C14.152 5.85684 14.2208 5.93537 14.2723 6.02496L15.8227 8.70576C15.9267 8.88606 15.9549 9.10026 15.9011 9.30134C15.8474 9.50242 15.716 9.67395 15.5359 9.77828L9.42244 13.3013C9.28832 13.379 9.14018 13.4295 8.98651 13.4499C8.83283 13.4703 8.67664 13.4602 8.52688 13.4202C8.37712 13.3801 8.23673 13.3109 8.11376 13.2165C7.99078 13.1221 7.88764 13.0044 7.81023 12.8701ZM16.216 9.3584L13.932 5.40866C13.7759 5.13788 13.7337 4.81617 13.8147 4.51428C13.8957 4.21239 14.0934 3.95507 14.3642 3.7989L18.9454 1.15788C19.2166 1.00164 19.5386 0.959285 19.8409 1.04011C20.1432 1.12094 20.4012 1.31834 20.5581 1.58905L22.8421 5.53879C22.9195 5.67289 22.9698 5.82092 22.9899 5.97443C23.0101 6.12794 22.9998 6.28392 22.9597 6.43345C22.9196 6.58299 22.8504 6.72315 22.756 6.84594C22.6617 6.96872 22.5441 7.07172 22.41 7.14904L17.8287 9.79006C17.5576 9.9464 17.2354 9.98875 16.9331 9.90782C16.6307 9.82689 16.3728 9.62929 16.216 9.3584V9.3584ZM5.69417 23.0001L10.4154 12.7861L5.69417 23.0001Z" stroke="black" stroke-linecap="round" stroke-linejoin="round"/>
</svg>
