<svg width="104" height="90" viewBox="0 0 104 90" fill="none" xmlns="http://www.w3.org/2000/svg">
<path d="M22.2 89.7C26.6 89.7 30.4 88.6 33.6 86.4C37 84.2 39.6 81.4 41.4 78C43.4 74.4 44.4 70.9 44.4 67.5C44.4 61.9 42.5 56.9 38.7 52.5C34.9 48.1 31.3 46 27.9 46.2C29.3 39.4 31.7 34.1 35.1 30.3C38.7 26.5 43.1 22.4 48.3 18L39.6 0C32 4 25.1 9.49999 18.9 16.5C12.9 23.5 8.2 31.1 4.8 39.3C1.6 47.3 0 55.1 0 62.7C0 70.3 2.1 76.7 6.3 81.9C10.7 87.1 16 89.7 22.2 89.7ZM78.3 89.7C82.3 89.7 85.9 88.6 89.1 86.4C92.5 84.2 95.2 81.4 97.2 78C99.2 74.4 100.2 70.9 100.2 67.5C100.2 63.7 99.2 60.2 97.2 57C95.4 53.8 93.2 51.2 90.6 49.2C88 47.2 85.6 46.2 83.4 46.2C84.8 39.4 87.2 34.1 90.6 30.3C94.2 26.5 98.6 22.4 103.8 18L94.8 0C87.4 4 80.7 9.49999 74.7 16.5C68.7 23.5 64 31.1 60.6 39.3C57.4 47.3 55.8 55.1 55.8 62.7C55.8 70.3 57.9 76.7 62.1 81.9C66.5 87.1 71.9 89.7 78.3 89.7Z" fill="#E95151" fill-opacity="0.07"/>
</svg>
